<?xml version="1.0" encoding="utf-8"?>
<!-- Generator: Adobe Illustrator 27.5.0, SVG Export Plug-In . SVG Version: 6.00 Build 0)  -->
<svg version="1.1" id="Layer_1" xmlns="http://www.w3.org/2000/svg" xmlns:xlink="http://www.w3.org/1999/xlink" x="0px" y="0px"
	 viewBox="0 0 437.5 437.5" style="enable-background:new 0 0 437.5 437.5;" xml:space="preserve">
<style type="text/css">
	.st0{fill:#616BE9;}
</style>
<g>
	<path class="st0" d="M188.2,7.9v201.3c0,17.1-11.4,31.6-27,36.2v184.3h119.2V246.2c-17.3-3.5-30.3-18.7-30.3-37V7.9H188.2z"/>
	<path class="st0" d="M359.2,7.9h-33.4v201.3c0,18.3-13,33.6-30.3,37v183.4h63.7c38.9,0,70.5-31.5,70.5-70.5V78.3
		C429.6,39.4,398.1,7.9,359.2,7.9z"/>
	<path class="st0" d="M146.2,246.7c-18.9-2.1-33.6-18.1-33.6-37.6V7.9H78.3C39.4,7.9,7.9,39.4,7.9,78.3v280.8
		c0,38.9,31.5,70.5,70.5,70.5h67.9V246.7z"/>
</g>
</svg>
